<svg width="24" height="24" viewBox="0 0 24 24" fill="none" xmlns="http://www.w3.org/2000/svg">
<g clip-path="url(#clip0_2010_113)">
<path fill-rule="evenodd" clip-rule="evenodd" d="M3.07612 5.617C3.15186 5.43431 3.28007 5.27819 3.44454 5.16837C3.60901 5.05854 3.80235 4.99995 4.00012 5H14.0001C14.9194 5 15.8296 5.18106 16.6789 5.53284C17.5282 5.88463 18.2999 6.40024 18.9499 7.05025C19.5999 7.70026 20.1155 8.47194 20.4673 9.32122C20.8191 10.1705 21.0001 11.0807 21.0001 12C21.0001 12.9193 20.8191 13.8295 20.4673 14.6788C20.1155 15.5281 19.5999 16.2997 18.9499 16.9497C18.2999 17.5998 17.5282 18.1154 16.6789 18.4672C15.8296 18.8189 14.9194 19 14.0001 19H5.00012C4.7349 19 4.48055 18.8946 4.29301 18.7071C4.10547 18.5196 4.00012 18.2652 4.00012 18C4.00012 17.7348 4.10547 17.4804 4.29301 17.2929C4.48055 17.1054 4.7349 17 5.00012 17H14.0001C15.3262 17 16.598 16.4732 17.5357 15.5355C18.4733 14.5979 19.0001 13.3261 19.0001 12C19.0001 10.6739 18.4733 9.40215 17.5357 8.46447C16.598 7.52678 15.3262 7 14.0001 7H6.41412L8.20712 8.793C8.38927 8.9816 8.49007 9.2342 8.48779 9.4964C8.48551 9.7586 8.38034 10.0094 8.19493 10.1948C8.00953 10.3802 7.75871 10.4854 7.49652 10.4877C7.23432 10.49 6.98172 10.3892 6.79312 10.207L3.29312 6.707C3.15318 6.56715 3.05787 6.38895 3.01925 6.19492C2.98062 6.0009 3.00041 5.79977 3.07612 5.617Z" fill="white"/>
</g>
<defs>
<clipPath id="clip0_2010_113">
<rect width="24" height="24" fill="white"/>
</clipPath>
</defs>
</svg>
